<?xml version="1.0" encoding="utf-8"?>
<!-- Generator: Adobe Illustrator 18.1.1, SVG Export Plug-In . SVG Version: 6.00 Build 0)  -->
<svg version="1.1" id="Layer_1" xmlns="http://www.w3.org/2000/svg" xmlns:xlink="http://www.w3.org/1999/xlink" x="0px" y="0px"
	 viewBox="0 0 612 524" enable-background="new 0 0 612 524" xml:space="preserve">
<rect x="-1.4" y="106.8" opacity="0.7" fill="#C9B8A9" enable-background="new    " width="621.9" height="25.8"/>
<rect x="-2.8" y="77.5" opacity="0.7" fill="#C9B8A9" enable-background="new    " width="621.9" height="25.8"/>
<rect x="-4.1" y="48.1" opacity="0.7" fill="#C9B8A9" enable-background="new    " width="621.9" height="25.8"/>
<rect x="-2.4" y="18.8" opacity="0.7" fill="#C9B8A9" enable-background="new    " width="621.9" height="25.8"/>
<rect x="-3.8" y="-10.5" opacity="0.7" fill="#C9B8A9" enable-background="new    " width="621.9" height="25.8"/>
<rect x="-1.4" y="136.4" opacity="0.7" fill="#C9B8A9" enable-background="new    " width="621.9" height="25.8"/>
<rect x="-1.4" y="166.1" opacity="0.7" fill="#C9B8A9" enable-background="new    " width="621.9" height="25.8"/>
<rect x="-1.4" y="195.7" opacity="0.7" fill="#C9B8A9" enable-background="new    " width="621.9" height="25.8"/>
<rect x="-1.4" y="225.3" opacity="0.7" fill="#C9B8A9" enable-background="new    " width="621.9" height="25.8"/>
<rect x="-1.4" y="255" opacity="0.7" fill="#C9B8A9" enable-background="new    " width="621.9" height="25.8"/>
<rect x="-1.4" y="284.6" opacity="0.7" fill="#C9B8A9" enable-background="new    " width="621.9" height="25.8"/>
<rect x="-1.4" y="314.2" opacity="0.7" fill="#C9B8A9" enable-background="new    " width="621.9" height="25.8"/>
<rect x="-1.4" y="343.7" opacity="0.7" fill="#C9B8A9" enable-background="new    " width="621.9" height="25.8"/>
<rect x="-4.5" y="373.4" opacity="0.7" fill="#C9B8A9" enable-background="new    " width="625" height="25.8"/>
<rect y="392.7" opacity="0.7" fill="#C9B8A9" enable-background="new    " width="612" height="6.4"/>
<rect x="569.2" y="-10.5" fill="#967D69" width="3.5" height="471.5"/>
<path fill="#967D69" d="M572.3,462.7l1.3-4.3c0-0.6-1.8-1.2-2.4-1.2c-0.6,0-2.4,0.5-2.4,1.2l1.3,4.5c-1.7,1.3-2.8,4.8-2.8,9
	c0,5.3,1.8,9.4,4.1,9.4c2.3,0,4.1-4.3,4.1-9.4C575.3,467.4,574,463.7,572.3,462.7z"/>
</svg>
