<?xml version="1.0" encoding="utf-8"?>
<!-- Generator: Adobe Illustrator 18.1.1, SVG Export Plug-In . SVG Version: 6.00 Build 0)  -->
<svg version="1.1" id="Layer_1" xmlns="http://www.w3.org/2000/svg" xmlns:xlink="http://www.w3.org/1999/xlink" x="0px" y="0px"
	 viewBox="0 0 612 668" enable-background="new 0 0 612 668" xml:space="preserve">
<path fill="#459695" stroke="#FFFFFF" stroke-miterlimit="10" d="M-323,641v400.4c0,0-32.8,11.4-56.1,0
	c-23.3-11.4-31.1,18.8-68.9,9.9c-37.9-8.8-54-27.1-73.4-9.3c-8.1,7.4-26,7.7-38.2,5.8c-8.4-1.3-26.5-5-25.8-9.5
	c2.4-16.1-0.5-397.2-0.5-397.2L-323,641L-323,641z"/>
<line fill="none" stroke="#FFFFFF" stroke-width="0.9858" stroke-miterlimit="10" x1="-402.3" y1="1042.3" x2="-402.3" y2="642.3"/>
<line fill="none" stroke="#FFFFFF" stroke-miterlimit="10" x1="-359" y1="1045.6" x2="-359" y2="642.3"/>
<polyline fill="#231F20" stroke="#FFFFFF" stroke-width="0.9835" stroke-miterlimit="10" points="-518.4,1039.6 -518.4,643.6 
	-518.4,642.9 -518.4,642.3 "/>
<polyline fill="#231F20" stroke="#FFFFFF" stroke-width="0.9981" stroke-miterlimit="10" points="-472,642.3 -472,642.9 
	-472,1043.9 "/>
<g opacity="0.7">
	<path fill="#459695" d="M365.4-24h-50.1c0,0,3.5,474.3,0.6,494.4c-0.9,5.9,20.2,10.3,30.2,12c5.8,1,12.6,1.4,19.2,1.1L365.4-24
		L365.4-24z"/>
	<path fill="#459695" d="M497-24h-80.4v491.2c14,3.6,30.8,13.4,55.8,19.6c9.7,2.4,17.8,2.4,24.5,1.3L497-24L497-24z"/>
	<path fill="#348695" d="M418.1-24h-56.8v507.5c10.3-0.6,20-3,25.9-8.3c10.3-9.3,19.8-10.7,31-8.3L418.1-24L418.1-24z"/>
	<path fill="#348695" d="M545.1-24h-49.2v511.7c21.4-4.3,31.8-20.9,49.2-15.6V-24z"/>
	<path fill="#459695" d="M543.4-24v496.6c1.3,0.4,2.6,1,4,1.7c27.4,14.1,65.8,0,65.8,0V-24H543.4z"/>
	<path fill="#459695" d="M47.3-24H-7.3c0,0,3.7,474.3,0.7,494.4c-0.8,5.9,22.1,10.3,32.9,12c6.3,1,13.7,1.4,20.9,1.1L47.3-24
		L47.3-24z"/>
	<path fill="#459695" d="M172.9-24H93v490.8c13.9,3.6,30.7,13.4,55.6,19.6c9.7,2.4,17.7,2.4,24.4,1.3L172.9-24L172.9-24z"/>
	<path fill="#348695" d="M96-24H46.1v507.5c8.9-0.6,17.7-3,22.8-8.3c8.9-9.3,17.4-10.7,27.2-8.3L96-24L96-24z"/>
	<path fill="#348695" d="M217-24h-46.7v512.3c20.2-4.3,30-20.9,46.7-15.6V-24z"/>
	<path fill="#459695" d="M215.7-24v496.6c1.2,0.4,2.4,1,3.7,1.7c25.9,14.1,62.2,0,62.2,0V-24H215.7z"/>
</g>
<g>
	<path fill="#459695" d="M989.8,246.7H947c0,0,2.9,381.1,0.5,397.2c-0.7,4.7,17.3,8.2,25.8,9.5c5,0.7,10.8,1.2,16.5,1V246.7H989.8z"
		/>
	<path fill="#459695" d="M1103.6,246.7h-68.7v394.6c12,2.9,26.4,10.8,47.7,15.7c8.3,2,15.1,2.1,21.1,1.1V246.7L1103.6,246.7z"/>
	
		<linearGradient id="SVGID_1_" gradientUnits="userSpaceOnUse" x1="818.3568" y1="15.5906" x2="855.6487" y2="15.5906" gradientTransform="matrix(1.2095 0 0 1.2095 0 431.6724)">
		<stop  offset="0" style="stop-color:#459695"/>
		<stop  offset="0.3013" style="stop-color:#348695"/>
		<stop  offset="1" style="stop-color:#347995"/>
	</linearGradient>
	<path fill="url(#SVGID_1_)" d="M1034.8,246.7h-45.1v407.6c8.1-0.5,16-2.4,20.6-6.7c8.1-7.5,15.7-8.6,24.5-6.7V246.7z"/>
	<path fill="#348695" d="M1145.6,246.7h-42.1v411.1c18.2-3.5,27.2-16.8,42.1-12.6V246.7z"/>
	<path fill="#459695" d="M1145.6,246.7v398.9c1.1,0.4,2.2,0.9,3.4,1.5c23.3,11.4,56.1,0,56.1,0V246.7H1145.6L1145.6,246.7z"/>
</g>
<linearGradient id="SVGID_2_" gradientUnits="userSpaceOnUse" x1="785.5589" y1="378.7288" x2="1002.9854" y2="378.7288" gradientTransform="matrix(1.2095 0 0 1.2095 0 431.6724)">
	<stop  offset="0.1067" style="stop-color:#459695"/>
	<stop  offset="0.2149" style="stop-color:#348695"/>
	<stop  offset="0.3249" style="stop-color:#347995"/>
	<stop  offset="0.4394" style="stop-color:#348695"/>
	<stop  offset="0.5665" style="stop-color:#459695"/>
	<stop  offset="0.7634" style="stop-color:#347995"/>
	<stop  offset="1" style="stop-color:#459695"/>
</linearGradient>
<path fill="url(#SVGID_2_)" stroke="#FFFFFF" stroke-miterlimit="10" d="M1213.1,683.8v400.4c0,0-32.8,11.4-56.1,0
	c-23.3-11.4-31.1,18.8-68.9,9.9c-37.9-8.8-54-27.1-73.4-9.3c-8.1,7.4-26,7.7-38.2,5.8c-8.4-1.3-26.5-5-25.8-9.5
	c2.4-16.1-0.5-397.2-0.5-397.2L1213.1,683.8L1213.1,683.8z"/>
</svg>
