<?xml version="1.0" encoding="utf-8"?>
<!-- Generator: Adobe Illustrator 18.1.1, SVG Export Plug-In . SVG Version: 6.00 Build 0)  -->
<svg version="1.1" id="Layer_1" xmlns="http://www.w3.org/2000/svg" xmlns:xlink="http://www.w3.org/1999/xlink" x="0px" y="0px"
	 viewBox="0 51 612 630.7" enable-background="new 0 51 612 630.7" xml:space="preserve">
<g>
	<g id="buildings">
		<rect id="bd_left_3" y="262" fill="#363636" width="37.1" height="414.9"/>
		<rect id="bd_left_2" x="31.9" y="307.9" fill="#464646" width="42.8" height="368.9"/>
		<rect id="bd_left_1_1_" x="73.2" y="203.3" fill="#555555" width="56.9" height="477.2"/>
		<rect id="bd_left_1" x="123.7" y="245.9" fill="#6A6969" width="56.9" height="430.8"/>
		<rect id="bd_left_3_1_" x="574.9" y="263.1" fill="#363636" width="37.1" height="414.9"/>
		<rect id="bd_left_2_1_" x="537.3" y="309.2" fill="#464646" width="42.8" height="368.9"/>
		<rect id="bd_left_1_3_" x="482" y="279.1" fill="#555555" width="56.9" height="402.6"/>
		<rect id="bd_left_1_2_" x="431.5" y="203.3" fill="#6A6969" width="56.9" height="474.7"/>
		<rect id="bd_left_1_4_" x="380.7" y="228.6" fill="#7A7A7A" width="56.9" height="447.8"/>
		<rect id="bd_left_1_5_" x="175.3" y="220.8" fill="#7A7A7A" width="56.9" height="455.7"/>
	</g>
	<rect x="103.9" y="372.2" fill="#DBA046" width="19" height="22.6"/>
	<rect x="97.7" y="512.2" fill="#DBA046" width="20.8" height="22.9"/>
	<rect x="42.7" y="396.9" fill="#DBA046" width="20.8" height="16"/>
	<rect x="80.2" y="299" fill="#DBA046" width="20.8" height="24.5"/>
	<rect x="101.2" y="246.1" fill="#DBA046" width="20.8" height="24.5"/>
	<rect x="41.6" y="330.9" fill="#DB9B37" width="11.8" height="31.5"/>
	<rect x="57.3" y="525.8" fill="#DB9B37" width="12.7" height="34.8"/>
	<rect x="15.5" y="352.8" fill="#DB912B" width="11.8" height="16.4"/>
	<rect x="5.4" y="417.7" fill="#DB912B" width="10" height="15.5"/>
	<rect x="18.6" y="550.8" fill="#DB912B" width="10" height="16.4"/>
	<g>
		<rect x="141.7" y="358.4" fill="#DBB248" width="24.2" height="30.7"/>
		<rect x="139.9" y="459.4" fill="#DBB248" width="25.9" height="21.4"/>
		<rect x="446.1" y="504.8" fill="#DBB248" width="25.9" height="30.7"/>
		<rect x="446.1" y="420.9" fill="#DBB248" width="25.9" height="21.4"/>
		<rect x="445.7" y="341.8" fill="#DBB248" width="26.4" height="33.4"/>
		<rect x="395.1" y="390.1" fill="#DBB248" width="30.2" height="24.9"/>
		<rect x="393.3" y="302.9" fill="#DBB248" width="32.1" height="40.5"/>
		<rect x="186.5" y="335.4" fill="#DBB248" width="32.7" height="43.8"/>
		<rect x="186.5" y="492.3" fill="#DBB248" width="32.7" height="40.8"/>
		<rect x="186" y="259.2" fill="#DBB248" width="33.1" height="44.3"/>
	</g>
	<rect x="493.5" y="368.7" fill="#DBA046" width="19" height="39.6"/>
	<rect x="497.8" y="500" fill="#DBA046" width="20.8" height="22.9"/>
	<rect x="506.6" y="304.3" fill="#DBA046" width="20.8" height="24.5"/>
	<g>
		<rect x="139.9" y="284.1" fill="#1B4873" width="26.4" height="33.4"/>
		<rect x="84.6" y="436.5" fill="#1B4873" width="20.8" height="16"/>
		<rect x="40.5" y="464.8" fill="#1B4873" width="12.7" height="34.8"/>
		<rect x="6.8" y="294.8" fill="#1B4873" width="11.8" height="13.3"/>
		<rect x="15.5" y="473.4" fill="#1B4873" width="11.8" height="16.4"/>
		<rect x="445.7" y="248.3" fill="#1B4873" width="26.4" height="33.4"/>
		<rect x="395.1" y="463.7" fill="#1B4873" width="30.2" height="35.6"/>
		<rect x="186.5" y="406.1" fill="#1B4873" width="32.7" height="28.5"/>
		<rect x="511" y="428.2" fill="#1B4873" width="20.8" height="16"/>
		<rect x="558.7" y="331.7" fill="#1B4873" width="11.8" height="21.9"/>
	</g>
	<rect x="545.8" y="396.9" fill="#DB9B37" width="12.7" height="34.8"/>
	<rect x="558.9" y="469" fill="#DB9B37" width="12.7" height="34.8"/>
	<rect x="542" y="526.7" fill="#DB9B37" width="12.7" height="34.8"/>
	<rect x="593.4" y="295.7" fill="#DB912B" width="11.8" height="13.3"/>
	<rect x="593.4" y="353.6" fill="#DB912B" width="11.8" height="16.4"/>
	<rect x="583.4" y="405.4" fill="#DB912B" width="10" height="15.5"/>
	<rect x="593.4" y="474.3" fill="#DB912B" width="11.8" height="16.4"/>
	<rect x="583.4" y="551.7" fill="#DB912B" width="10" height="16.4"/>
</g>
</svg>
